# xmcd
#
# Track frame offsets:
#	150
#	24791
#	46256
#	70147
#	94621
#	117089
#	139656
#	163628
#	182585
#	208898
#
# Disc length: 3154 seconds
#
# Revision: 1
# Processed by: cddbd v1.5.2PL0 Copyright (c) Steve Scherf et al.
# Submitted via: EZCDAudioConverter 8.0.2.1
#
DISCID=7d0c500a
DTITLE=Tấn Minh - st. Phú Quang. Vol 03. Tấn Minh and Hà Nội 
DYEAR=2010
DGENRE=Miscellaneous
TTITLE0=Nỗi nhớ mùa đông
TTITLE1=Im lặng đêm Hà Nội
TTITLE2=Mơ về nơi xa lắm
TTITLE3=Chiều Phủ Tây Hồ
TTITLE4=Tôi muốn mang Hồ Gươm đi
TTITLE5=Thương lắm tóc dài ơi
TTITLE6=Phố cũ của tôi
TTITLE7=Lãng đãng chiều đông Hà Nội
TTITLE8=Em ơi Hà Nội phố
TTITLE9=Hà Nội ngày trở về
EXTD=
EXTT0=
EXTT1=
EXTT2=
EXTT3=
EXTT4=
EXTT5=
EXTT6=
EXTT7=
EXTT8=
EXTT9=
PLAYORDER=
